<svg width="34" height="33" viewBox="0 0 34 33" fill="none" xmlns="http://www.w3.org/2000/svg">
<path d="M17 12.5709C16.1994 12.5712 15.4169 12.8019 14.7514 13.2338C14.0859 13.6657 13.5673 14.2795 13.2611 14.9974C12.9549 15.7154 12.875 16.5054 13.0314 17.2674C13.1877 18.0295 13.5734 18.7294 14.1396 19.2788C14.7058 19.8281 15.4271 20.2022 16.2123 20.3537C16.9975 20.5052 17.8114 20.4273 18.551 20.1298C19.2906 19.8324 19.9228 19.3288 20.3675 18.6827C20.8123 18.0366 21.0496 17.277 21.0496 16.5C21.0488 15.4579 20.6219 14.4588 19.8625 13.7221C19.1032 12.9854 18.0736 12.5713 17 12.5709ZM26.4646 9.55085C26.2585 9.04395 25.9473 8.58355 25.5503 8.19822C25.1533 7.81289 24.679 7.51085 24.1567 7.31083C22.5629 6.70018 18.7683 6.83719 17 6.83719C15.2317 6.83719 11.4408 6.69502 9.84254 7.31083C9.32028 7.51085 8.84593 7.81289 8.44893 8.19822C8.05192 8.58355 7.74073 9.04395 7.53464 9.55085C6.90625 11.0977 7.04665 14.7844 7.04665 16.4993C7.04665 18.2141 6.90625 21.8964 7.53768 23.4484C7.74376 23.9553 8.05496 24.4157 8.45196 24.801C8.84897 25.1864 9.32332 25.4884 9.84558 25.6884C11.4393 26.2991 15.234 26.1621 17.003 26.1621C18.7721 26.1621 22.5614 26.3042 24.1597 25.6884C24.682 25.4884 25.1563 25.1864 25.5533 24.801C25.9504 24.4157 26.2616 23.9553 26.4676 23.4484C27.1013 21.9015 26.9556 18.2148 26.9556 16.5C26.9556 14.7852 27.1013 11.1036 26.4676 9.55159L26.4646 9.55085ZM17 22.5402C15.7692 22.5402 14.566 22.1859 13.5426 21.5222C12.5192 20.8585 11.7215 19.9152 11.2505 18.8115C10.7795 17.7078 10.6562 16.4933 10.8964 15.3216C11.1365 14.1499 11.7292 13.0737 12.5995 12.2289C13.4699 11.3842 14.5787 10.8089 15.7859 10.5759C16.9931 10.3428 18.2444 10.4624 19.3815 10.9196C20.5187 11.3768 21.4906 12.151 22.1744 13.1443C22.8582 14.1376 23.2232 15.3054 23.2232 16.5C23.2242 17.2935 23.0639 18.0794 22.7515 18.8126C22.4391 19.5459 21.9808 20.2121 21.4027 20.7732C20.8246 21.3343 20.1382 21.7792 19.3827 22.0824C18.6272 22.3856 17.8175 22.5411 17 22.5402ZM23.4797 11.6163C23.1924 11.6164 22.9115 11.5339 22.6725 11.379C22.4335 11.2242 22.2472 11.0041 22.1372 10.7465C22.0271 10.4889 21.9982 10.2054 22.0542 9.93183C22.1102 9.65829 22.2485 9.40701 22.4516 9.20976C22.6547 9.01252 22.9135 8.87817 23.1953 8.82371C23.4771 8.76925 23.7692 8.79712 24.0347 8.90381C24.3002 9.0105 24.5271 9.19121 24.6867 9.42307C24.8463 9.65494 24.9316 9.92755 24.9316 10.2064C24.9324 10.3916 24.8955 10.5751 24.823 10.7465C24.7506 10.9178 24.644 11.0736 24.5094 11.2048C24.3748 11.3361 24.2148 11.4403 24.0387 11.5114C23.8625 11.5825 23.6736 11.6191 23.4828 11.6192L23.4797 11.6163ZM30.3571 0H3.64286C2.67671 0 1.75014 0.372512 1.06697 1.03559C0.3838 1.69866 0 2.59798 0 3.53571L0 29.4643C0 30.402 0.3838 31.3013 1.06697 31.9644C1.75014 32.6275 2.67671 33 3.64286 33H30.3571C31.3233 33 32.2499 32.6275 32.933 31.9644C33.6162 31.3013 34 30.402 34 29.4643V3.53571C34 2.59798 33.6162 1.69866 32.933 1.03559C32.2499 0.372512 31.3233 0 30.3571 0ZM29.0579 21.3616C28.96 23.2495 28.516 24.9224 27.096 26.2969C25.6761 27.6714 23.9541 28.1111 22.0112 28.201C20.0069 28.3108 13.9977 28.3108 11.9933 28.201C10.0482 28.106 8.33076 27.6743 6.90853 26.2969C5.48629 24.9194 5.03929 23.2458 4.9467 21.3616C4.83362 19.4155 4.83362 13.5823 4.9467 11.6384C5.0446 9.75047 5.48326 8.07763 6.90853 6.70312C8.33379 5.32862 10.0558 4.89402 11.9933 4.80415C13.9977 4.6944 20.0069 4.6944 22.0112 4.80415C23.9563 4.89917 25.6791 5.33083 27.096 6.70828C28.5129 8.08574 28.9653 9.75931 29.0579 11.6472C29.1709 13.586 29.1709 19.414 29.0579 21.3616Z" fill="white"/>
</svg>
