<svg width="34" height="33" viewBox="0 0 34 33" fill="none" xmlns="http://www.w3.org/2000/svg">
<path d="M30.2222 0C31.2241 0 32.185 0.386308 32.8935 1.07394C33.602 1.76157 34 2.69421 34 3.66667V29.3333C34 30.3058 33.602 31.2384 32.8935 31.9261C32.185 32.6137 31.2241 33 30.2222 33H3.77778C2.77585 33 1.81496 32.6137 1.10649 31.9261C0.398015 31.2384 0 30.3058 0 29.3333V3.66667C0 2.69421 0.398015 1.76157 1.10649 1.07394C1.81496 0.386308 2.77585 0 3.77778 0H30.2222ZM29.2778 28.4167V18.7C29.2778 17.1149 28.629 15.5947 27.4742 14.4739C26.3194 13.353 24.7531 12.7233 23.12 12.7233C21.5144 12.7233 19.6444 13.6767 18.7378 15.1067V13.0717H13.4678V28.4167H18.7378V19.3783C18.7378 17.9667 19.9089 16.8117 21.3633 16.8117C22.0647 16.8117 22.7373 17.0821 23.2332 17.5634C23.7292 18.0448 24.0078 18.6976 24.0078 19.3783V28.4167H29.2778ZM7.32889 10.1933C8.17051 10.1933 8.97766 9.86884 9.57277 9.29122C10.1679 8.71361 10.5022 7.9302 10.5022 7.11333C10.5022 5.40833 9.08556 4.015 7.32889 4.015C6.48226 4.015 5.6703 4.34143 5.07165 4.92248C4.47299 5.50353 4.13667 6.2916 4.13667 7.11333C4.13667 8.81833 5.57222 10.1933 7.32889 10.1933ZM9.95444 28.4167V13.0717H4.72222V28.4167H9.95444Z" fill="white"/>
</svg>
