<svg width="34" height="33" viewBox="0 0 34 33" fill="none" xmlns="http://www.w3.org/2000/svg">
<path d="M30.3571 0H3.64286C1.6317 0 0 1.58371 0 3.53571V29.4643C0 31.4163 1.6317 33 3.64286 33H30.3571C32.3683 33 34 31.4163 34 29.4643V3.53571C34 1.58371 32.3683 0 30.3571 0ZM26.646 11.6973C26.6612 11.9036 26.6612 12.1172 26.6612 12.3234C26.6612 18.7098 21.6522 26.0685 12.4996 26.0685C9.67634 26.0685 7.05804 25.273 4.85714 23.9029C5.25938 23.9471 5.64643 23.9618 6.05625 23.9618C8.38616 23.9618 10.5263 23.1958 12.2339 21.8993C10.0482 21.8551 8.21161 20.4629 7.5817 18.5478C8.34821 18.6583 9.03884 18.6583 9.82812 18.4594C7.55134 18.01 5.84375 16.0654 5.84375 13.7156V13.6567C6.50402 14.0176 7.27812 14.2386 8.09018 14.2681C7.40747 13.8273 6.8478 13.2294 6.46112 12.5276C6.07443 11.8258 5.87277 11.042 5.87411 10.2462C5.87411 9.34755 6.11696 8.52254 6.54955 7.80804C9.00089 10.7397 12.6817 12.6549 16.8103 12.8612C16.1045 9.58326 18.6317 6.92411 21.6674 6.92411C23.1018 6.92411 24.392 7.50603 25.3027 8.44888C26.4259 8.24263 27.5036 7.8375 28.4598 7.28504C28.0879 8.40469 27.3063 9.34754 26.2741 9.9442C27.2759 9.84107 28.2473 9.56853 29.1429 9.19286C28.4674 10.1578 27.6174 11.0123 26.646 11.6973Z" fill="white"/>
</svg>
