<svg width="33" height="35" viewBox="0 0 33 35" fill="none" xmlns="http://www.w3.org/2000/svg">
<rect x="-1" y="1" width="31" height="33" rx="4" transform="matrix(-1 0 0 1 31 0)" stroke="black" stroke-opacity="0.34" stroke-width="2"/>
<path d="M9.79813 13V11.336H13.1261V23H11.2861V13H9.79813ZM15.6319 17.016C15.6319 15.1707 15.9412 13.7307 16.5599 12.696C17.1892 11.6507 18.2665 11.128 19.7919 11.128C21.3172 11.128 22.3892 11.6507 23.0079 12.696C23.6372 13.7307 23.9519 15.1707 23.9519 17.016C23.9519 18.8827 23.6372 20.344 23.0079 21.4C22.3892 22.4453 21.3172 22.968 19.7919 22.968C18.2665 22.968 17.1892 22.4453 16.5599 21.4C15.9412 20.344 15.6319 18.8827 15.6319 17.016ZM22.1599 17.016C22.1599 16.152 22.1012 15.4213 21.9839 14.824C21.8772 14.2267 21.6532 13.7413 21.3119 13.368C20.9705 12.984 20.4639 12.792 19.7919 12.792C19.1199 12.792 18.6132 12.984 18.2719 13.368C17.9305 13.7413 17.7012 14.2267 17.5839 14.824C17.4772 15.4213 17.4239 16.152 17.4239 17.016C17.4239 17.912 17.4772 18.664 17.5839 19.272C17.6905 19.88 17.9145 20.3707 18.2559 20.744C18.6079 21.1173 19.1199 21.304 19.7919 21.304C20.4639 21.304 20.9705 21.1173 21.3119 20.744C21.6639 20.3707 21.8932 19.88 21.9999 19.272C22.1065 18.664 22.1599 17.912 22.1599 17.016Z" fill="black" fill-opacity="0.51"/>
</svg>
