<svg width="33" height="35" viewBox="0 0 33 35" fill="none" xmlns="http://www.w3.org/2000/svg">
<rect x="-1" y="1" width="31" height="33" rx="4" transform="matrix(-1 0 0 1 31 0)" stroke="black" stroke-opacity="0.34" stroke-width="2"/>
<path d="M13.968 20.52C14.992 19.6347 15.7973 18.9093 16.384 18.344C16.9813 17.768 17.4773 17.1707 17.872 16.552C18.2667 15.9333 18.464 15.3147 18.464 14.696C18.464 14.056 18.3093 13.5547 18 13.192C17.7013 12.8293 17.2267 12.648 16.576 12.648C15.9467 12.648 15.456 12.8507 15.104 13.256C14.7627 13.6507 14.5813 14.184 14.56 14.856H12.8C12.832 13.64 13.1947 12.712 13.888 12.072C14.592 11.4213 15.4827 11.096 16.56 11.096C17.7227 11.096 18.6293 11.416 19.28 12.056C19.9413 12.696 20.272 13.5493 20.272 14.616C20.272 15.384 20.0747 16.1253 19.68 16.84C19.296 17.544 18.832 18.1787 18.288 18.744C17.7547 19.2987 17.072 19.944 16.24 20.68L15.52 21.32H20.592V22.84H12.816V21.512L13.968 20.52Z" fill="black" fill-opacity="0.51"/>
</svg>
