<svg width="24" height="27" viewBox="0 0 24 27" fill="none" xmlns="http://www.w3.org/2000/svg">
<g filter="url(#filter0_d_124_82)">
<path d="M7.0001 10.9999H14.5901L11.2901 7.70994C11.1018 7.52164 10.996 7.26624 10.996 6.99994C10.996 6.73364 11.1018 6.47825 11.2901 6.28994C11.4784 6.10164 11.7338 5.99585 12.0001 5.99585C12.2664 5.99585 12.5218 6.10164 12.7101 6.28994L17.7101 11.2899C17.8011 11.385 17.8725 11.4972 17.9201 11.6199C18.0201 11.8634 18.0201 12.1365 17.9201 12.3799C17.8725 12.5027 17.8011 12.6148 17.7101 12.7099L12.7101 17.7099C12.6171 17.8037 12.5065 17.8781 12.3847 17.9288C12.2628 17.9796 12.1321 18.0057 12.0001 18.0057C11.8681 18.0057 11.7374 17.9796 11.6155 17.9288C11.4937 17.8781 11.3831 17.8037 11.2901 17.7099C11.1964 17.617 11.122 17.5064 11.0712 17.3845C11.0204 17.2627 10.9943 17.132 10.9943 16.9999C10.9943 16.8679 11.0204 16.7372 11.0712 16.6154C11.122 16.4935 11.1964 16.3829 11.2901 16.2899L14.5901 12.9999H7.0001C6.73489 12.9999 6.48053 12.8946 6.293 12.707C6.10546 12.5195 6.0001 12.2652 6.0001 11.9999C6.0001 11.7347 6.10546 11.4804 6.293 11.2928C6.48053 11.1053 6.73489 10.9999 7.0001 10.9999Z" fill="black" fill-opacity="0.21"/>
</g>
<defs>
<filter id="filter0_d_124_82" x="-4" y="0" width="32" height="32" filterUnits="userSpaceOnUse" color-interpolation-filters="sRGB">
<feFlood flood-opacity="0" result="BackgroundImageFix"/>
<feColorMatrix in="SourceAlpha" type="matrix" values="0 0 0 0 0 0 0 0 0 0 0 0 0 0 0 0 0 0 127 0" result="hardAlpha"/>
<feOffset dy="4"/>
<feGaussianBlur stdDeviation="2"/>
<feComposite in2="hardAlpha" operator="out"/>
<feColorMatrix type="matrix" values="0 0 0 0 0 0 0 0 0 0 0 0 0 0 0 0 0 0 0.25 0"/>
<feBlend mode="normal" in2="BackgroundImageFix" result="effect1_dropShadow_124_82"/>
<feBlend mode="normal" in="SourceGraphic" in2="effect1_dropShadow_124_82" result="shape"/>
</filter>
</defs>
</svg>
