<svg width="124" height="22" viewBox="0 0 124 22" fill="none" xmlns="http://www.w3.org/2000/svg">
<path d="M10.8855 0L13.3294 7.52169H21.2382L14.8399 12.1704L17.2838 19.692L10.8855 15.0434L4.48716 19.692L6.93111 12.1704L0.532774 7.52169H8.44155L10.8855 0Z" fill="#FFC700"/>
<path d="M36.4427 0L38.8867 7.52169H46.7955L40.3971 12.1704L42.8411 19.692L36.4427 15.0434L30.0444 19.692L32.4884 12.1704L26.09 7.52169H33.9988L36.4427 0Z" fill="#FFC700"/>
<path d="M62 0L64.4439 7.52169H72.3527L65.9544 12.1704L68.3983 19.692L62 15.0434L55.6017 19.692L58.0456 12.1704L51.6473 7.52169H59.5561L62 0Z" fill="#FFC700"/>
<path d="M87.5572 0L90.0012 7.52169H97.91L91.5116 12.1704L93.9556 19.692L87.5572 15.0434L81.1589 19.692L83.6029 12.1704L77.2045 7.52169H85.1133L87.5572 0Z" fill="#FFC700"/>
<path d="M113.115 0L115.558 7.52169H123.467L117.069 12.1704L119.513 19.692L113.115 15.0434L106.716 19.692L109.16 12.1704L102.762 7.52169H110.671L113.115 0Z" fill="#FFC700"/>
</svg>
