<svg width="60" height="62" viewBox="0 0 60 62" fill="none" xmlns="http://www.w3.org/2000/svg">
<path d="M39.2188 0H20.8125C3.99993 0 0 4.13326 0 21.4739V40.4937C0 57.8666 3.96882 62 20.7812 62H39.1875C56.0001 62 60 57.8989 60 40.5259V21.5062C60 4.13326 56.0312 0 39.2188 0ZM48.4374 44.2395H44.0625C42.4063 44.2395 41.9062 42.8509 38.9376 39.7833C36.3437 37.2 35.25 36.877 34.5938 36.877C33.6876 36.877 33.4374 37.1353 33.4374 38.427V42.4958C33.4374 43.5938 33.0938 44.2395 30.3126 44.2395C27.6137 44.0521 24.9966 43.2049 22.6766 41.7677C20.3567 40.3305 18.4004 38.3443 16.9688 35.9728C13.5701 31.6015 11.2053 26.4711 10.0626 20.9895C10.0626 20.3114 10.3125 19.6978 11.5626 19.6978H15.9375C17.0625 19.6978 17.4688 20.2145 17.9062 21.4094C20.0312 27.8676 23.6563 33.4864 25.125 33.4864C25.6875 33.4864 25.9374 33.2281 25.9374 31.775V25.1228C25.7499 22.0875 24.1875 21.8291 24.1875 20.7312C24.2081 20.4416 24.3371 20.1717 24.5471 19.9787C24.7572 19.7858 25.0317 19.685 25.3125 19.6978H32.1876C33.1251 19.6978 33.4374 20.1822 33.4374 21.3447V30.3219C33.4374 31.2906 33.8438 31.6134 34.125 31.6134C34.6875 31.6134 35.1249 31.2906 36.1562 30.225C38.3722 27.4325 40.1829 24.3213 41.5312 20.9895C41.6689 20.5886 41.9297 20.2453 42.274 20.012C42.6182 19.7788 43.0269 19.6684 43.4376 19.6978H47.8125C49.125 19.6978 49.4062 20.3759 49.125 21.3447C47.5331 25.0284 45.5635 28.5252 43.2501 31.775C42.7813 32.5176 42.5938 32.9051 43.2501 33.777C43.6875 34.4551 45.2188 35.7791 46.2501 37.0384C47.75 38.5845 48.9955 40.3734 49.9374 42.3344C50.3124 43.5938 49.6875 44.2395 48.4374 44.2395Z" fill="#17B8C2"/>
</svg>
