<svg width="25" height="25" viewBox="0 0 25 25" fill="none" xmlns="http://www.w3.org/2000/svg">
<path d="M8.75 11.25C8.99723 11.25 9.2389 11.1767 9.44447 11.0393C9.65003 10.902 9.81024 10.7068 9.90485 10.4784C9.99946 10.2499 10.0242 9.99861 9.97599 9.75613C9.92775 9.51366 9.8087 9.29093 9.63389 9.11611C9.45907 8.9413 9.23634 8.82225 8.99387 8.77402C8.75139 8.72578 8.50006 8.75054 8.27165 8.84515C8.04324 8.93976 7.84802 9.09997 7.71067 9.30553C7.57332 9.5111 7.5 9.75277 7.5 10C7.5 10.3315 7.6317 10.6495 7.86612 10.8839C8.10054 11.1183 8.41848 11.25 8.75 11.25ZM12.5 0C10.0277 0 7.61099 0.733112 5.55538 2.10663C3.49976 3.48015 1.89761 5.43238 0.951511 7.71645C0.00541605 10.0005 -0.242126 12.5139 0.24019 14.9386C0.722505 17.3634 1.91301 19.5907 3.66117 21.3388C5.40933 23.087 7.63661 24.2775 10.0614 24.7598C12.4861 25.2421 14.9995 24.9946 17.2835 24.0485C19.5676 23.1024 21.5199 21.5002 22.8934 19.4446C24.2669 17.389 25 14.9723 25 12.5C25 10.8585 24.6767 9.23302 24.0485 7.71645C23.4203 6.19988 22.4996 4.8219 21.3388 3.66116C20.1781 2.50043 18.8001 1.57969 17.2835 0.951506C15.767 0.323322 14.1415 0 12.5 0ZM12.5 22.5C10.5222 22.5 8.58879 21.9135 6.9443 20.8147C5.29981 19.7159 4.01809 18.1541 3.26121 16.3268C2.50433 14.4996 2.3063 12.4889 2.69215 10.5491C3.078 8.60928 4.03041 6.82746 5.42894 5.42893C6.82746 4.03041 8.60929 3.078 10.5491 2.69215C12.4889 2.30629 14.4996 2.50433 16.3268 3.2612C18.1541 4.01808 19.7159 5.2998 20.8147 6.9443C21.9135 8.58879 22.5 10.5222 22.5 12.5C22.5 15.1522 21.4464 17.6957 19.5711 19.5711C17.6957 21.4464 15.1522 22.5 12.5 22.5ZM16.25 13.75H8.75C8.41848 13.75 8.10054 13.8817 7.86612 14.1161C7.6317 14.3505 7.5 14.6685 7.5 15C7.5 16.3261 8.02679 17.5978 8.96447 18.5355C9.90215 19.4732 11.1739 20 12.5 20C13.8261 20 15.0979 19.4732 16.0355 18.5355C16.9732 17.5978 17.5 16.3261 17.5 15C17.5 14.6685 17.3683 14.3505 17.1339 14.1161C16.8995 13.8817 16.5815 13.75 16.25 13.75ZM12.5 17.5C12.0616 17.4995 11.631 17.3838 11.2515 17.1644C10.8719 16.945 10.5567 16.6297 10.3375 16.25H14.6625C14.4433 16.6297 14.1281 16.945 13.7486 17.1644C13.369 17.3838 12.9384 17.4995 12.5 17.5ZM16.25 8.75C16.0028 8.75 15.7611 8.82331 15.5555 8.96066C15.35 9.09801 15.1898 9.29323 15.0952 9.52164C15.0005 9.75005 14.9758 10.0014 15.024 10.2439C15.0723 10.4863 15.1913 10.7091 15.3661 10.8839C15.5409 11.0587 15.7637 11.1777 16.0061 11.226C16.2486 11.2742 16.5 11.2495 16.7284 11.1548C16.9568 11.0602 17.152 10.9 17.2893 10.6945C17.4267 10.4889 17.5 10.2472 17.5 10C17.5 9.66848 17.3683 9.35053 17.1339 9.11611C16.8995 8.88169 16.5815 8.75 16.25 8.75Z" fill="#0AA1AA"/>
</svg>
