<svg width="25" height="25" viewBox="0 0 25 25" fill="none" xmlns="http://www.w3.org/2000/svg">
<path d="M25 11.2478C25.0035 10.3651 24.7744 9.49725 24.3361 8.73199C23.8978 7.96673 23.2657 7.33127 22.5039 6.88996C22.5227 6.67332 22.5227 6.45544 22.5039 6.2388C22.5039 5.24245 22.1095 4.28692 21.4073 3.5824C20.7052 2.87787 19.7529 2.48208 18.7599 2.48208H18.5352C18.3274 1.90393 17.9814 1.38578 17.5275 0.973063C17.0736 0.560341 16.5258 0.265656 15.932 0.114849C15.3382 -0.0359586 14.7165 -0.0382822 14.1216 0.108082C13.5267 0.254447 12.9767 0.545028 12.5198 0.954345C12.0629 0.545028 11.5128 0.254447 10.9179 0.108082C10.323 -0.0382822 9.70139 -0.0359586 9.10759 0.114849C8.51379 0.265656 7.96592 0.560341 7.51205 0.973063C7.05818 1.38578 6.71216 1.90393 6.50433 2.48208H6.27968C5.2867 2.48208 4.33438 2.87787 3.63224 3.5824C2.93009 4.28692 2.53563 5.24245 2.53563 6.2388C2.51684 6.45544 2.51684 6.67332 2.53563 6.88996C1.82733 7.29167 1.22762 7.86101 0.788701 8.5484C0.349785 9.23579 0.0849662 10.0204 0.0172971 10.8339C-0.050372 11.6475 0.0811597 12.4653 0.400443 13.2162C0.719725 13.9671 1.21708 14.6283 1.84922 15.1422C1.44021 15.9077 1.23658 16.7667 1.25834 17.6349C1.28009 18.5032 1.52647 19.3508 1.9733 20.0947C2.42013 20.8386 3.05204 21.4531 3.80702 21.8779C4.562 22.3027 5.4141 22.5233 6.27968 22.5179H6.50433C6.71216 23.0961 7.05818 23.6142 7.51205 24.0269C7.96592 24.4397 8.51379 24.7343 9.10759 24.8852C9.70139 25.036 10.323 25.0383 10.9179 24.8919C11.5128 24.7456 12.0629 24.455 12.5198 24.0457C12.9767 24.455 13.5267 24.7456 14.1216 24.8919C14.7165 25.0383 15.3382 25.036 15.932 24.8852C16.5258 24.7343 17.0736 24.4397 17.5275 24.0269C17.9814 23.6142 18.3274 23.0961 18.5352 22.5179H18.7599C19.6202 22.5125 20.4645 22.284 21.2108 21.8547C21.9572 21.4255 22.5804 20.8099 23.0199 20.0679C23.4594 19.3258 23.7003 18.4823 23.7192 17.6193C23.7381 16.7563 23.5344 15.903 23.1279 15.1422C23.7101 14.6746 24.1804 14.082 24.5043 13.4081C24.8283 12.7342 24.9976 11.996 25 11.2478ZM11.2718 8.17977C10.9999 8.02378 10.7162 7.88978 10.4231 7.77905C10.1087 7.67278 9.76502 7.69619 9.46777 7.84414C9.17053 7.99209 8.94404 8.25246 8.83812 8.56797C8.7322 8.88347 8.75554 9.22828 8.90299 9.52653C9.05044 9.82477 9.30993 10.052 9.62437 10.1583C10.1048 10.3326 10.5203 10.6506 10.8149 11.0693C11.1095 11.4881 11.269 11.9874 11.2718 12.5V14.441C10.9999 14.285 10.7162 14.151 10.4231 14.0403C10.1087 13.934 9.76502 13.9574 9.46777 14.1053C9.17053 14.2533 8.94404 14.5137 8.83812 14.8292C8.7322 15.1447 8.75554 15.4895 8.90299 15.7877C9.05044 16.086 9.30993 16.3132 9.62437 16.4195C10.1048 16.5938 10.5203 16.9118 10.8149 17.3305C11.1095 17.7493 11.269 18.2486 11.2718 18.7612V21.2657C11.2718 21.5978 11.1403 21.9163 10.9062 22.1511C10.6722 22.386 10.3547 22.5179 10.0237 22.5179C9.78229 22.5163 9.54648 22.4445 9.3449 22.3112C9.14332 22.1778 8.98462 21.9886 8.88804 21.7666C9.09731 21.6434 9.2975 21.5053 9.48709 21.3533C9.61329 21.2481 9.71759 21.1189 9.79404 20.9732C9.87049 20.8276 9.91759 20.6682 9.93266 20.5042C9.94773 20.3403 9.93046 20.1749 9.88184 20.0177C9.83323 19.8604 9.75422 19.7143 9.64933 19.5877C9.54444 19.4611 9.41572 19.3564 9.27052 19.2797C9.12532 19.203 8.96649 19.1557 8.80308 19.1406C8.63968 19.1255 8.47491 19.1428 8.31818 19.1916C8.16145 19.2404 8.01582 19.3196 7.88963 19.4249C7.439 19.8055 6.86873 20.014 6.27968 20.0134C5.61769 20.0134 4.98282 19.7496 4.51472 19.2799C4.04662 18.8102 3.78365 18.1732 3.78365 17.509C3.78962 17.0376 3.92805 16.5775 4.18301 16.1816C4.46309 16.232 4.74711 16.2571 5.03166 16.2567C5.36266 16.2567 5.6801 16.1248 5.91415 15.8899C6.1482 15.6551 6.27968 15.3366 6.27968 15.0045C6.27968 14.6724 6.1482 14.3539 5.91415 14.119C5.6801 13.8842 5.36266 13.7522 5.03166 13.7522C4.73687 13.7539 4.4445 13.6987 4.17053 13.5894C3.72167 13.427 3.32862 13.1389 3.03794 12.7592C2.74726 12.3795 2.57113 11.9242 2.53042 11.4472C2.48971 10.9702 2.58612 10.4914 2.80823 10.0677C3.03034 9.64396 3.36885 9.29298 3.78365 9.05634C3.96099 9.22005 4.15319 9.36679 4.35773 9.49462C4.6457 9.66068 4.98762 9.70516 5.30826 9.61827C5.62891 9.53137 5.90202 9.32023 6.06752 9.03129C6.23302 8.74235 6.27734 8.39928 6.19074 8.07755C6.10415 7.75582 5.89372 7.48178 5.60575 7.31573C5.43006 7.21848 5.28354 7.07579 5.18143 6.90249C5.06604 6.70143 5.01384 6.47011 5.03166 6.2388C5.03166 5.90668 5.16315 5.58817 5.3972 5.35333C5.63125 5.11849 5.94869 4.98656 6.27968 4.98656C6.36662 4.97439 6.45483 4.97439 6.54177 4.98656C6.60784 5.18776 6.68705 5.38437 6.77889 5.57511C6.86042 5.7186 6.96944 5.84449 7.09967 5.94553C7.2299 6.04656 7.37876 6.12075 7.53768 6.16382C7.6966 6.20688 7.86245 6.21798 8.02566 6.19646C8.18888 6.17494 8.34624 6.12124 8.48868 6.03844C8.76537 5.8714 8.96676 5.60325 9.05055 5.29034C9.13433 4.97743 9.09397 4.64412 8.93796 4.36044C8.83325 4.16835 8.77751 3.95326 8.77572 3.73432C8.77572 3.4022 8.90721 3.08369 9.14126 2.84885C9.37531 2.61401 9.69274 2.48208 10.0237 2.48208C10.3547 2.48208 10.6722 2.61401 10.9062 2.84885C11.1403 3.08369 11.2718 3.4022 11.2718 3.73432V8.17977ZM20.869 13.5894C20.5951 13.6987 20.3027 13.7539 20.0079 13.7522C19.6769 13.7522 19.3595 13.8842 19.1254 14.119C18.8914 14.3539 18.7599 14.6724 18.7599 15.0045C18.7599 15.3366 18.8914 15.6551 19.1254 15.8899C19.3595 16.1248 19.6769 16.2567 20.0079 16.2567C20.2924 16.2571 20.5765 16.232 20.8565 16.1816C21.1115 16.5775 21.2499 17.0376 21.2559 17.509C21.2559 18.1732 20.9929 18.8102 20.5248 19.2799C20.0567 19.7496 19.4219 20.0134 18.7599 20.0134C18.1708 20.014 17.6005 19.8055 17.1499 19.4249C16.8951 19.2123 16.5665 19.1101 16.2365 19.1406C15.9065 19.1711 15.6021 19.3319 15.3902 19.5877C15.1784 19.8434 15.0765 20.1731 15.1069 20.5042C15.1373 20.8354 15.2976 21.1408 15.5525 21.3533C15.7421 21.5053 15.9422 21.6434 16.1515 21.7666C16.0549 21.9886 15.8962 22.1778 15.6947 22.3112C15.4931 22.4445 15.2573 22.5163 15.0158 22.5179C14.6848 22.5179 14.3674 22.386 14.1333 22.1511C13.8993 21.9163 13.7678 21.5978 13.7678 21.2657V18.7612C13.7706 18.2486 13.93 17.7493 14.2246 17.3305C14.5192 16.9118 14.9348 16.5938 15.4152 16.4195C15.7296 16.3132 15.9891 16.086 16.1366 15.7877C16.284 15.4895 16.3073 15.1447 16.2014 14.8292C16.0955 14.5137 15.869 14.2533 15.5718 14.1053C15.2745 13.9574 14.9309 13.934 14.6164 14.0403C14.3234 14.151 14.0396 14.285 13.7678 14.441V12.5C13.7706 11.9874 13.93 11.4881 14.2246 11.0693C14.5192 10.6506 14.9348 10.3326 15.4152 10.1583C15.7296 10.052 15.9891 9.82477 16.1366 9.52653C16.284 9.22828 16.3073 8.88347 16.2014 8.56797C16.0955 8.25246 15.869 7.99209 15.5718 7.84414C15.2745 7.69619 14.9309 7.67278 14.6164 7.77905C14.3234 7.88978 14.0396 8.02378 13.7678 8.17977V3.73432C13.7678 3.4022 13.8993 3.08369 14.1333 2.84885C14.3674 2.61401 14.6848 2.48208 15.0158 2.48208C15.3468 2.48208 15.6642 2.61401 15.8983 2.84885C16.1323 3.08369 16.2638 3.4022 16.2638 3.73432C16.262 3.95326 16.2063 4.16835 16.1016 4.36044C16.0186 4.50261 15.9643 4.65984 15.9419 4.82309C15.9196 4.98635 15.9296 5.15242 15.9713 5.3118C16.0131 5.47118 16.0857 5.62073 16.1852 5.75186C16.2846 5.883 16.4089 5.99316 16.5509 6.07601C16.6933 6.1588 16.8507 6.21251 17.0139 6.23403C17.1771 6.25554 17.3429 6.24445 17.5019 6.20138C17.6608 6.15832 17.8097 6.08413 17.9399 5.98309C18.0701 5.88206 18.1791 5.75617 18.2607 5.61268C18.3541 5.40974 18.4333 5.20053 18.4978 4.98656C18.5847 4.97439 18.6729 4.97439 18.7599 4.98656C19.0909 4.98656 19.4083 5.11849 19.6424 5.35333C19.8764 5.58817 20.0079 5.90668 20.0079 6.2388C20.006 6.48428 19.9322 6.72378 19.7957 6.92753C19.6937 7.09003 19.5519 7.22366 19.3839 7.31573C19.0959 7.48178 18.8855 7.75582 18.7989 8.07755C18.7123 8.39928 18.7566 8.74235 18.9221 9.03129C19.0876 9.32023 19.3607 9.53137 19.6814 9.61827C20.002 9.70516 20.3439 9.66068 20.6319 9.49462C20.856 9.37304 21.0654 9.22597 21.2559 9.05634C21.6721 9.2888 22.0133 9.63591 22.2393 10.0567C22.4653 10.4774 22.5665 10.9543 22.5311 11.4309C22.4956 11.9076 22.325 12.3641 22.0394 12.7466C21.7537 13.129 21.3649 13.4215 20.9189 13.5894H20.869Z" fill="#00AEE6"/>
</svg>
