<svg width="20" height="25" viewBox="0 0 20 25" fill="none" xmlns="http://www.w3.org/2000/svg">
<path d="M20 8.675C19.987 8.56017 19.9618 8.44704 19.925 8.3375V8.225C19.8649 8.09647 19.7847 7.97833 19.6875 7.875L12.1875 0.375C12.0842 0.27777 11.966 0.197601 11.8375 0.1375C11.8002 0.1322 11.7623 0.1322 11.725 0.1375C11.598 0.0646766 11.4578 0.0179303 11.3125 0H3.75C2.75544 0 1.80161 0.395088 1.09835 1.09835C0.395088 1.80161 0 2.75544 0 3.75V21.25C0 22.2446 0.395088 23.1984 1.09835 23.9017C1.80161 24.6049 2.75544 25 3.75 25H16.25C17.2446 25 18.1984 24.6049 18.9017 23.9017C19.6049 23.1984 20 22.2446 20 21.25V8.75C20 8.75 20 8.75 20 8.675ZM12.5 4.2625L15.7375 7.5H13.75C13.4185 7.5 13.1005 7.3683 12.8661 7.13388C12.6317 6.89946 12.5 6.58152 12.5 6.25V4.2625ZM17.5 21.25C17.5 21.5815 17.3683 21.8995 17.1339 22.1339C16.8995 22.3683 16.5815 22.5 16.25 22.5H3.75C3.41848 22.5 3.10054 22.3683 2.86612 22.1339C2.6317 21.8995 2.5 21.5815 2.5 21.25V3.75C2.5 3.41848 2.6317 3.10054 2.86612 2.86612C3.10054 2.6317 3.41848 2.5 3.75 2.5H10V6.25C10 7.24456 10.3951 8.19839 11.0983 8.90165C11.8016 9.60491 12.7554 10 13.75 10H17.5V21.25ZM12.8625 12.8625L8.75 16.9875L7.1375 15.3625C6.90212 15.1271 6.58288 14.9949 6.25 14.9949C5.91712 14.9949 5.59788 15.1271 5.3625 15.3625C5.12712 15.5979 4.99489 15.9171 4.99489 16.25C4.99489 16.5829 5.12712 16.9021 5.3625 17.1375L7.8625 19.6375C7.9787 19.7547 8.11695 19.8477 8.26928 19.9111C8.4216 19.9746 8.58498 20.0072 8.75 20.0072C8.91502 20.0072 9.0784 19.9746 9.23072 19.9111C9.38305 19.8477 9.5213 19.7547 9.6375 19.6375L14.6375 14.6375C14.8729 14.4021 15.0051 14.0829 15.0051 13.75C15.0051 13.4171 14.8729 13.0979 14.6375 12.8625C14.4021 12.6271 14.0829 12.4949 13.75 12.4949C13.4171 12.4949 13.0979 12.6271 12.8625 12.8625Z" fill="#17B8C2"/>
</svg>
