<svg width="33" height="33" viewBox="0 0 33 33" fill="none" xmlns="http://www.w3.org/2000/svg">
<g filter="url(#filter0_d_1_56)">
<path d="M12.75 11.25C12.9972 11.25 13.2389 11.1767 13.4445 11.0393C13.65 10.902 13.8102 10.7068 13.9049 10.4784C13.9995 10.2499 14.0242 9.99861 13.976 9.75613C13.9278 9.51366 13.8087 9.29093 13.6339 9.11611C13.4591 8.9413 13.2363 8.82225 12.9939 8.77402C12.7514 8.72578 12.5001 8.75054 12.2716 8.84515C12.0432 8.93976 11.848 9.09997 11.7107 9.30553C11.5733 9.5111 11.5 9.75277 11.5 10C11.5 10.3315 11.6317 10.6495 11.8661 10.8839C12.1005 11.1183 12.4185 11.25 12.75 11.25ZM16.5 0C14.0277 0 11.611 0.733112 9.55538 2.10663C7.49976 3.48015 5.89761 5.43238 4.95151 7.71645C4.00542 10.0005 3.75787 12.5139 4.24019 14.9386C4.7225 17.3634 5.91301 19.5907 7.66117 21.3388C9.40933 23.087 11.6366 24.2775 14.0614 24.7598C16.4861 25.2421 18.9995 24.9946 21.2835 24.0485C23.5676 23.1024 25.5199 21.5002 26.8934 19.4446C28.2669 17.389 29 14.9723 29 12.5C29 10.8585 28.6767 9.23302 28.0485 7.71645C27.4203 6.19989 26.4996 4.8219 25.3388 3.66116C24.1781 2.50043 22.8001 1.57969 21.2835 0.951506C19.767 0.323322 18.1415 0 16.5 0V0ZM16.5 22.5C14.5222 22.5 12.5888 21.9135 10.9443 20.8147C9.29981 19.7159 8.01809 18.1541 7.26121 16.3268C6.50433 14.4996 6.3063 12.4889 6.69215 10.5491C7.078 8.60928 8.03041 6.82746 9.42894 5.42893C10.8275 4.03041 12.6093 3.078 14.5491 2.69215C16.4889 2.30629 18.4996 2.50433 20.3268 3.2612C22.1541 4.01808 23.7159 5.2998 24.8147 6.9443C25.9135 8.58879 26.5 10.5222 26.5 12.5C26.5 15.1522 25.4464 17.6957 23.5711 19.5711C21.6957 21.4464 19.1522 22.5 16.5 22.5V22.5ZM20.25 13.75H12.75C12.4185 13.75 12.1005 13.8817 11.8661 14.1161C11.6317 14.3505 11.5 14.6685 11.5 15C11.5 16.3261 12.0268 17.5978 12.9645 18.5355C13.9022 19.4732 15.1739 20 16.5 20C17.8261 20 19.0979 19.4732 20.0355 18.5355C20.9732 17.5978 21.5 16.3261 21.5 15C21.5 14.6685 21.3683 14.3505 21.1339 14.1161C20.8995 13.8817 20.5815 13.75 20.25 13.75ZM16.5 17.5C16.0616 17.4995 15.631 17.3838 15.2515 17.1644C14.8719 16.945 14.5567 16.6297 14.3375 16.25H18.6625C18.4433 16.6297 18.1281 16.945 17.7486 17.1644C17.369 17.3838 16.9384 17.4995 16.5 17.5ZM20.25 8.75C20.0028 8.75 19.7611 8.82331 19.5555 8.96066C19.35 9.09801 19.1898 9.29324 19.0952 9.52164C19.0005 9.75005 18.9758 10.0014 19.024 10.2439C19.0723 10.4863 19.1913 10.7091 19.3661 10.8839C19.5409 11.0587 19.7637 11.1777 20.0061 11.226C20.2486 11.2742 20.4999 11.2495 20.7284 11.1548C20.9568 11.0602 21.152 10.9 21.2893 10.6945C21.4267 10.4889 21.5 10.2472 21.5 10C21.5 9.66848 21.3683 9.35053 21.1339 9.11611C20.8995 8.88169 20.5815 8.75 20.25 8.75Z" fill="#0AA1AA"/>
</g>
<defs>
<filter id="filter0_d_1_56" x="0" y="0" width="33" height="33" filterUnits="userSpaceOnUse" color-interpolation-filters="sRGB">
<feFlood flood-opacity="0" result="BackgroundImageFix"/>
<feColorMatrix in="SourceAlpha" type="matrix" values="0 0 0 0 0 0 0 0 0 0 0 0 0 0 0 0 0 0 127 0" result="hardAlpha"/>
<feOffset dy="4"/>
<feGaussianBlur stdDeviation="2"/>
<feComposite in2="hardAlpha" operator="out"/>
<feColorMatrix type="matrix" values="0 0 0 0 0 0 0 0 0 0 0 0 0 0 0 0 0 0 0.25 0"/>
<feBlend mode="normal" in2="BackgroundImageFix" result="effect1_dropShadow_1_56"/>
<feBlend mode="normal" in="SourceGraphic" in2="effect1_dropShadow_1_56" result="shape"/>
</filter>
</defs>
</svg>
