<svg width="38" height="38" viewBox="0 0 38 38" fill="none" xmlns="http://www.w3.org/2000/svg">
<path d="M16.625 28.5186V17.3672L4.75 11.4297V27.7578L14.8438 32.8232L14.2686 35.1797L2.375 29.2422V8.75781L17.8125 1.05762L33.25 8.75781V13.7676C32.3841 13.9036 31.5924 14.182 30.875 14.6025V11.4297L19 17.3672V26.1436L16.625 28.5186ZM13.9902 5.60352L24.8262 11.8008L29.4092 9.5L17.8125 3.69238L13.9902 5.60352ZM17.8125 15.3076L22.2656 13.0811L11.4297 6.88379L6.21582 9.5L17.8125 15.3076ZM34.2891 16.625C34.8086 16.625 35.291 16.7178 35.7363 16.9033C36.1816 17.0889 36.5775 17.3424 36.9238 17.6641C37.2702 17.9857 37.5299 18.3753 37.7031 18.833C37.8763 19.2907 37.9753 19.7793 38 20.2988C38 20.7812 37.9072 21.2513 37.7217 21.709C37.5361 22.1667 37.2702 22.5687 36.9238 22.915L23.6201 36.2188L16.625 37.9629L18.3691 30.9678L31.6729 17.6826C32.0316 17.3239 32.4336 17.0579 32.8789 16.8848C33.3242 16.7116 33.7943 16.625 34.2891 16.625ZM35.2354 21.2451C35.4951 20.9854 35.625 20.6699 35.625 20.2988C35.625 19.9154 35.5013 19.6061 35.2539 19.3711C35.0065 19.1361 34.6849 19.0124 34.2891 19C34.1159 19 33.9489 19.0247 33.7881 19.0742C33.6273 19.1237 33.485 19.2165 33.3613 19.3525L20.5215 32.1924L19.8906 34.6973L22.3955 34.0664L35.2354 21.2451Z" fill="#17B8C2"/>
</svg>
