<svg width="38" height="38" viewBox="0 0 38 38" fill="none" xmlns="http://www.w3.org/2000/svg">
<path d="M3.25534 30.8988L12.8947 21.1613L18.1038 26.1488L24.4704 20.5834L28.0171 24.0414M34.8333 8.70837C34.8333 8.07848 34.5831 7.47439 34.1377 7.029C33.6923 6.5836 33.0882 6.33337 32.4583 6.33337H5.54167C4.91178 6.33337 4.30769 6.5836 3.86229 7.029C3.41689 7.47439 3.16667 8.07848 3.16667 8.70837V15.8334H34.8333V8.70837Z" stroke="#17B8C2" stroke-width="2.5" stroke-linecap="round" stroke-linejoin="round"/>
<path d="M34.8333 14.25V29.2917C34.8333 29.9216 34.5831 30.5257 34.1377 30.9711C33.6923 31.4165 33.0882 31.6667 32.4583 31.6667H9.5M15.1303 11.0834H29.3803M8.79542 11.0834H10.3788M3.16667 14.25V21.375" stroke="#17B8C2" stroke-width="2.5" stroke-linecap="round" stroke-linejoin="round"/>
</svg>
