<svg width="38" height="38" viewBox="0 0 38 38" fill="none" xmlns="http://www.w3.org/2000/svg">
<path d="M25.9033 22.1666C26.03 21.1216 26.125 20.0766 26.125 19C26.125 17.9233 26.03 16.8783 25.9033 15.8333H31.255C31.5083 16.8466 31.6667 17.9075 31.6667 19C31.6667 20.0925 31.5083 21.1533 31.255 22.1666M23.1008 30.97C24.0508 29.2125 24.7792 27.3125 25.2858 25.3333H29.9567C28.4227 27.9747 25.989 29.9756 23.1008 30.97ZM22.705 22.1666H15.295C15.1367 21.1216 15.0417 20.0766 15.0417 19C15.0417 17.9233 15.1367 16.8625 15.295 15.8333H22.705C22.8475 16.8625 22.9583 17.9233 22.9583 19C22.9583 20.0766 22.8475 21.1216 22.705 22.1666ZM19 31.6033C17.6858 29.7033 16.625 27.5975 15.9758 25.3333H22.0242C21.375 27.5975 20.3142 29.7033 19 31.6033ZM12.6667 12.6666H8.04334C9.56153 10.018 11.9934 8.01398 14.8833 7.02996C13.9333 8.78746 13.2208 10.6875 12.6667 12.6666ZM8.04334 25.3333H12.6667C13.2208 27.3125 13.9333 29.2125 14.8833 30.97C11.9995 29.9751 9.57101 27.9738 8.04334 25.3333ZM6.74501 22.1666C6.49167 21.1533 6.33334 20.0925 6.33334 19C6.33334 17.9075 6.49167 16.8466 6.74501 15.8333H12.0967C11.97 16.8783 11.875 17.9233 11.875 19C11.875 20.0766 11.97 21.1216 12.0967 22.1666M19 6.38079C20.3142 8.28079 21.375 10.4025 22.0242 12.6666H15.9758C16.625 10.4025 17.6858 8.28079 19 6.38079ZM29.9567 12.6666H25.2858C24.7903 10.7056 24.0565 8.81263 23.1008 7.02996C26.0142 8.02746 28.4367 10.0383 29.9567 12.6666ZM19 3.16663C10.2442 3.16663 3.16667 10.2916 3.16667 19C3.16667 23.1992 4.83482 27.2265 7.80415 30.1958C9.27441 31.6661 11.0199 32.8324 12.9408 33.6281C14.8618 34.4238 16.9207 34.8333 19 34.8333C23.1993 34.8333 27.2265 33.1651 30.1959 30.1958C33.1652 27.2265 34.8333 23.1992 34.8333 19C34.8333 16.9207 34.4238 14.8618 33.6281 12.9408C32.8324 11.0198 31.6661 9.27436 30.1959 7.8041C28.7256 6.33384 26.9801 5.16757 25.0592 4.37187C23.1382 3.57617 21.0793 3.16663 19 3.16663Z" fill="#17B8C2"/>
</svg>
