<svg width="38" height="38" viewBox="0 0 38 38" fill="none" xmlns="http://www.w3.org/2000/svg">
<path d="M30.0833 18.1767C29.6634 18.1767 29.2607 18.3435 28.9638 18.6404C28.6668 18.9373 28.5 19.3401 28.5 19.76V23.5441L26.125 21.2008C25.2905 20.3996 24.1785 19.9522 23.0217 19.9522C21.8648 19.9522 20.7528 20.3996 19.9183 21.2008L18.81 22.3092L14.8675 18.3667C14.0428 17.5467 12.9271 17.0865 11.7642 17.0865C10.6012 17.0865 9.48556 17.5467 8.66084 18.3667L6.33334 20.7258V11.8433C6.33334 11.4234 6.50015 11.0207 6.79709 10.7237C7.09402 10.4268 7.49675 10.26 7.91667 10.26H17.4167C17.8366 10.26 18.2393 10.0932 18.5363 9.79624C18.8332 9.4993 19 9.09658 19 8.67665C19 8.25672 18.8332 7.854 18.5363 7.55706C18.2393 7.26013 17.8366 7.09332 17.4167 7.09332H7.91667C6.65689 7.09332 5.44871 7.59376 4.55791 8.48456C3.66712 9.37536 3.16667 10.5835 3.16667 11.8433V30.8433C3.16667 32.1031 3.66712 33.3113 4.55791 34.2021C5.44871 35.0929 6.65689 35.5933 7.91667 35.5933H26.9167C28.1765 35.5933 29.3846 35.0929 30.2754 34.2021C31.1662 33.3113 31.6667 32.1031 31.6667 30.8433V19.76C31.6667 19.3401 31.4999 18.9373 31.2029 18.6404C30.906 18.3435 30.5033 18.1767 30.0833 18.1767ZM7.91667 32.4266C7.49675 32.4266 7.09402 32.2598 6.79709 31.9629C6.50015 31.666 6.33334 31.2632 6.33334 30.8433V25.2066L10.8933 20.5833C11.0085 20.4646 11.1463 20.3702 11.2986 20.3057C11.4509 20.2412 11.6146 20.208 11.78 20.208C11.9454 20.208 12.1091 20.2412 12.2614 20.3057C12.4137 20.3702 12.5515 20.4646 12.6667 20.5833L17.6858 25.6025L24.4308 32.3475L7.91667 32.4266ZM28.5 30.8433C28.4945 31.1483 28.401 31.4452 28.2308 31.6983L21.0425 24.5417L22.1508 23.4492C22.3822 23.219 22.6953 23.0899 23.0217 23.0899C23.348 23.0899 23.6611 23.219 23.8925 23.4492L28.5 28.025V30.8433ZM34.39 6.69748L30.5583 2.86582C30.2617 2.57092 29.8604 2.4054 29.4421 2.4054C29.0238 2.4054 28.6225 2.57092 28.3258 2.86582L21.0742 10.1175C20.9217 10.2628 20.7997 10.4371 20.7155 10.6301C20.6312 10.8231 20.5863 11.031 20.5833 11.2416V15.0733C20.5833 15.4932 20.7502 15.896 21.0471 16.1929C21.344 16.4898 21.7467 16.6567 22.1667 16.6567H25.9983C26.4137 16.6549 26.8118 16.49 27.1067 16.1975L34.3583 8.94582C34.5088 8.80073 34.6291 8.62727 34.7122 8.43546C34.7953 8.24365 34.8396 8.03727 34.8426 7.82825C34.8455 7.61922 34.8071 7.41168 34.7294 7.21761C34.6517 7.02353 34.5364 6.84675 34.39 6.69748ZM25.3333 13.49H23.75V11.9066L29.45 6.22248L31.0333 7.80582L25.3333 13.49Z" fill="#17B8C2"/>
</svg>
