<svg width="38" height="38" viewBox="0 0 38 38" fill="none" xmlns="http://www.w3.org/2000/svg">
<path d="M34.4375 13.7602L24.2398 3.56253C23.7927 3.12196 23.1902 2.875 22.5625 2.875C21.9348 2.875 21.3323 3.12196 20.8852 3.56253L17.1594 7.28831L8.53516 10.5242C8.14688 10.67 7.80387 10.9155 7.54067 11.2361C7.27747 11.5566 7.10339 11.9408 7.03594 12.35L3.57735 33.0571C3.54664 33.2275 3.55406 33.4026 3.59907 33.5698C3.64408 33.7371 3.72557 33.8922 3.83769 34.0242C3.9498 34.1562 4.08976 34.2617 4.2475 34.3332C4.40524 34.4046 4.57685 34.4403 4.75001 34.4375H4.94297L25.65 30.9938C26.0592 30.9208 26.4426 30.7429 26.7626 30.4775C27.0826 30.2122 27.3283 29.8684 27.4758 29.4797L30.7117 20.8555L34.4375 17.1149C34.8781 16.6677 35.125 16.0652 35.125 15.4375C35.125 14.8098 34.8781 14.2073 34.4375 13.7602ZM25.2492 28.6336L8.2086 31.4688L15.2445 24.4328C15.8484 24.7677 16.5283 24.9415 17.2188 24.9375C18.0408 24.9375 18.8444 24.6938 19.5278 24.2371C20.2113 23.7804 20.7441 23.1313 21.0586 22.3718C21.3732 21.6124 21.4555 20.7767 21.2951 19.9704C21.1348 19.1642 20.7389 18.4236 20.1577 17.8424C19.5764 17.2611 18.8358 16.8653 18.0296 16.7049C17.2234 16.5445 16.3877 16.6268 15.6282 16.9414C14.8688 17.256 14.2197 17.7887 13.763 18.4722C13.3063 19.1557 13.0625 19.9593 13.0625 20.7813C13.0585 21.4718 13.2323 22.1516 13.5672 22.7555L6.53126 29.7914L9.36641 12.7508L17.5156 9.693L28.307 20.4844L25.2492 28.6336ZM15.4375 20.7813C15.4375 20.429 15.542 20.0846 15.7377 19.7917C15.9334 19.4987 16.2116 19.2704 16.5371 19.1356C16.8626 19.0008 17.2207 18.9655 17.5663 19.0343C17.9118 19.103 18.2292 19.2726 18.4783 19.5217C18.7274 19.7709 18.897 20.0882 18.9658 20.4338C19.0345 20.7793 18.9992 21.1375 18.8644 21.4629C18.7296 21.7884 18.5013 22.0666 18.2084 22.2623C17.9154 22.4581 17.5711 22.5625 17.2188 22.5625C16.7463 22.5625 16.2933 22.3749 15.9592 22.0408C15.6252 21.7068 15.4375 21.2537 15.4375 20.7813ZM29.6875 18.5102L19.4899 8.31253L22.5625 5.23987L32.7602 15.4375L29.6875 18.5102Z" fill="#17B8C2"/>
</svg>
