<svg width="20" height="20" viewBox="0 0 20 20" fill="none" xmlns="http://www.w3.org/2000/svg">
<path d="M17.6417 1.71667C17.0444 1.61378 16.4395 1.56082 15.8334 1.55834C13.7653 1.55664 11.7404 2.14965 10 3.26667C8.25515 2.16432 6.23057 1.58586 4.1667 1.6C3.56057 1.60249 2.9557 1.65545 2.35836 1.75834C2.1627 1.79207 1.98551 1.89455 1.85871 2.04733C1.7319 2.20011 1.66381 2.39314 1.6667 2.59167V12.5917C1.66491 12.7141 1.69014 12.8355 1.74057 12.947C1.79101 13.0586 1.86542 13.1577 1.95851 13.2373C2.0516 13.3169 2.16108 13.3749 2.27916 13.4074C2.39724 13.4398 2.52102 13.4458 2.6417 13.425C3.83588 13.2182 5.05936 13.2525 6.24009 13.5259C7.42081 13.7993 8.53488 14.3061 9.5167 15.0167L9.6167 15.075H9.70836C9.80078 15.1135 9.89991 15.1333 10 15.1333C10.1002 15.1333 10.1993 15.1135 10.2917 15.075H10.3834L10.4834 15.0167C11.4583 14.2902 12.5692 13.767 13.7502 13.4778C14.9311 13.1886 16.1581 13.1395 17.3584 13.3333C17.479 13.3542 17.6028 13.3481 17.7209 13.3157C17.839 13.2833 17.9485 13.2252 18.0416 13.1456C18.1346 13.0661 18.2091 12.967 18.2595 12.8554C18.3099 12.7438 18.3351 12.6224 18.3334 12.5V2.5C18.3247 2.31013 18.2514 2.12893 18.1256 1.98645C17.9998 1.84398 17.829 1.74879 17.6417 1.71667ZM9.1667 12.7917C7.62493 11.9806 5.90879 11.5573 4.1667 11.5583C3.8917 11.5583 3.6167 11.5583 3.33336 11.5583V3.225C3.61091 3.20901 3.88915 3.20901 4.1667 3.225C5.94452 3.22304 7.68354 3.74475 9.1667 4.725V12.7917ZM16.6667 11.5917C16.3834 11.5917 16.1084 11.5917 15.8334 11.5917C14.0913 11.5906 12.3751 12.0139 10.8334 12.825V4.725C12.3165 3.74475 14.0555 3.22304 15.8334 3.225C16.1109 3.20901 16.3891 3.20901 16.6667 3.225V11.5917ZM17.6417 15.05C17.0444 14.9471 16.4395 14.8942 15.8334 14.8917C13.7653 14.89 11.7404 15.483 10 16.6C8.25963 15.483 6.23473 14.89 4.1667 14.8917C3.56057 14.8942 2.9557 14.9471 2.35836 15.05C2.24989 15.0672 2.14588 15.1057 2.05233 15.1633C1.95878 15.2208 1.87753 15.2963 1.81325 15.3853C1.74897 15.4744 1.70293 15.5753 1.67778 15.6822C1.65263 15.7891 1.64886 15.9 1.6667 16.0083C1.70905 16.2247 1.83544 16.4155 2.01819 16.5389C2.20094 16.6623 2.42515 16.7083 2.6417 16.6667C3.83588 16.4599 5.05936 16.4942 6.24009 16.7676C7.42081 17.0409 8.53488 17.5478 9.5167 18.2583C9.65783 18.3588 9.82678 18.4128 10 18.4128C10.1733 18.4128 10.3422 18.3588 10.4834 18.2583C11.4652 17.5478 12.5793 17.0409 13.76 16.7676C14.9407 16.4942 16.1642 16.4599 17.3584 16.6667C17.5749 16.7083 17.7991 16.6623 17.9819 16.5389C18.1646 16.4155 18.291 16.2247 18.3334 16.0083C18.3512 15.9 18.3474 15.7891 18.3223 15.6822C18.2971 15.5753 18.2511 15.4744 18.1868 15.3853C18.1225 15.2963 18.0413 15.2208 17.9477 15.1633C17.8542 15.1057 17.7502 15.0672 17.6417 15.05Z" fill="#646464"/>
</svg>
