<svg width="20" height="20" viewBox="0 0 20 20" fill="none" xmlns="http://www.w3.org/2000/svg">
<path d="M13.0917 10.5917C13.9087 9.94889 14.505 9.06744 14.7977 8.06996C15.0904 7.07248 15.0649 6.00856 14.7248 5.02623C14.3847 4.0439 13.7469 3.192 12.9001 2.58905C12.0532 1.98611 11.0395 1.66209 10 1.66209C8.96045 1.66209 7.94676 1.98611 7.09994 2.58905C6.25312 3.192 5.61528 4.0439 5.27517 5.02623C4.93506 6.00856 4.90959 7.07248 5.2023 8.06996C5.49501 9.06744 6.09134 9.94889 6.90833 10.5917C5.5084 11.1525 4.2869 12.0828 3.37407 13.2833C2.46125 14.4837 1.8913 15.9094 1.725 17.4083C1.71296 17.5178 1.72259 17.6285 1.75335 17.7342C1.78411 17.8399 1.83539 17.9386 1.90426 18.0244C2.04335 18.1979 2.24565 18.309 2.46666 18.3333C2.68768 18.3577 2.9093 18.2932 3.08277 18.1541C3.25624 18.015 3.36735 17.8127 3.39166 17.5917C3.57465 15.9627 4.3514 14.4582 5.57351 13.3657C6.79562 12.2732 8.37741 11.6692 10.0167 11.6692C11.6559 11.6692 13.2377 12.2732 14.4598 13.3657C15.6819 14.4582 16.4587 15.9627 16.6417 17.5917C16.6643 17.7964 16.762 17.9856 16.9159 18.1225C17.0698 18.2595 17.269 18.3346 17.475 18.3333H17.5667C17.7851 18.3082 17.9848 18.1978 18.1221 18.026C18.2595 17.8543 18.3234 17.6353 18.3 17.4167C18.1329 15.9135 17.5599 14.4842 16.6424 13.2818C15.7249 12.0795 14.4974 11.1496 13.0917 10.5917ZM10 10C9.34073 10 8.69626 9.80451 8.1481 9.43824C7.59993 9.07197 7.17269 8.55137 6.9204 7.94229C6.66811 7.3332 6.6021 6.66298 6.73071 6.01637C6.85933 5.36977 7.1768 4.77583 7.64297 4.30965C8.10915 3.84348 8.70309 3.52601 9.3497 3.39739C9.9963 3.26877 10.6665 3.33478 11.2756 3.58708C11.8847 3.83937 12.4053 4.26661 12.7716 4.81477C13.1378 5.36294 13.3333 6.0074 13.3333 6.66667C13.3333 7.55073 12.9821 8.39858 12.357 9.0237C11.7319 9.64882 10.8841 10 10 10Z" fill="#646464"/>
</svg>
