<svg width="20" height="20" viewBox="0 0 20 20" fill="none" xmlns="http://www.w3.org/2000/svg">
<path d="M13.3334 8.55834L9.16669 6.15001C8.91345 6.0038 8.6262 5.92679 8.33378 5.92671C8.04137 5.92664 7.75408 6.0035 7.50076 6.14958C7.24745 6.29566 7.03702 6.50581 6.89062 6.75894C6.74422 7.01206 6.66699 7.29926 6.66669 7.59167V12.4083C6.66699 12.7006 6.74414 12.9877 6.89041 13.2407C7.03667 13.4937 7.24691 13.7039 7.50002 13.85C7.75339 13.9963 8.0408 14.0733 8.33336 14.0733C8.62592 14.0733 8.91333 13.9963 9.16669 13.85L13.3334 11.4417C13.5859 11.2952 13.7956 11.0849 13.9413 10.8319C14.087 10.5788 14.1637 10.292 14.1637 10C14.1637 9.70802 14.087 9.42116 13.9413 9.16815C13.7956 8.91514 13.5859 8.70485 13.3334 8.55834ZM12.5 10L8.33336 12.4083V7.59167L12.5 10ZM10 1.66667C8.35185 1.66667 6.74068 2.15541 5.37027 3.07109C3.99986 3.98677 2.93176 5.28826 2.30103 6.81098C1.6703 8.33369 1.50527 10.0092 1.82681 11.6258C2.14836 13.2423 2.94203 14.7271 4.10747 15.8926C5.27291 17.058 6.75776 17.8517 8.37427 18.1732C9.99078 18.4948 11.6663 18.3297 13.1891 17.699C14.7118 17.0683 16.0133 16.0002 16.9289 14.6298C17.8446 13.2593 18.3334 11.6482 18.3334 10C18.3334 8.90566 18.1178 7.82202 17.699 6.81098C17.2802 5.79993 16.6664 4.88127 15.8926 4.10745C15.1188 3.33363 14.2001 2.7198 13.1891 2.30101C12.178 1.88222 11.0944 1.66667 10 1.66667ZM10 16.6667C8.68148 16.6667 7.39255 16.2757 6.29622 15.5431C5.19989 14.8106 4.34541 13.7694 3.84083 12.5512C3.33624 11.3331 3.20422 9.99261 3.46146 8.6994C3.71869 7.4062 4.35363 6.21831 5.28598 5.28596C6.21833 4.35361 7.40622 3.71867 8.69942 3.46144C9.99263 3.2042 11.3331 3.33622 12.5512 3.84081C13.7694 4.34539 14.8106 5.19988 15.5432 6.2962C16.2757 7.39253 16.6667 8.68146 16.6667 10C16.6667 11.7681 15.9643 13.4638 14.7141 14.7141C13.4638 15.9643 11.7681 16.6667 10 16.6667Z" fill="#646464"/>
</svg>
