<svg width="89" height="36" viewBox="0 0 89 36" fill="none" xmlns="http://www.w3.org/2000/svg">
<rect width="89" height="36" rx="5" fill="#17B8C2"/>
<path d="M31.9201 17.6C29.9001 12.91 26.1001 10 22.0001 10C17.9001 10 14.1001 12.91 12.0801 17.6C12.025 17.7262 11.9966 17.8623 11.9966 18C11.9966 18.1377 12.025 18.2738 12.0801 18.4C14.1001 23.09 17.9001 26 22.0001 26C26.1001 26 29.9001 23.09 31.9201 18.4C31.9751 18.2738 32.0036 18.1377 32.0036 18C32.0036 17.8623 31.9751 17.7262 31.9201 17.6ZM22.0001 24C18.8201 24 15.8301 21.71 14.1001 18C15.8301 14.29 18.8201 12 22.0001 12C25.1801 12 28.1701 14.29 29.9001 18C28.1701 21.71 25.1801 24 22.0001 24ZM22.0001 14C21.2089 14 20.4356 14.2346 19.7778 14.6741C19.12 15.1136 18.6073 15.7384 18.3045 16.4693C18.0018 17.2002 17.9226 18.0044 18.0769 18.7804C18.2313 19.5563 18.6122 20.269 19.1716 20.8284C19.731 21.3878 20.4438 21.7688 21.2197 21.9231C21.9956 22.0775 22.7999 21.9983 23.5308 21.6955C24.2617 21.3928 24.8864 20.8801 25.3259 20.2223C25.7655 19.5645 26.0001 18.7911 26.0001 18C26.0001 16.9391 25.5786 15.9217 24.8285 15.1716C24.0783 14.4214 23.0609 14 22.0001 14ZM22.0001 20C21.6045 20 21.2178 19.8827 20.8889 19.6629C20.56 19.4432 20.3037 19.1308 20.1523 18.7654C20.0009 18.3999 19.9613 17.9978 20.0385 17.6098C20.1157 17.2219 20.3061 16.8655 20.5859 16.5858C20.8656 16.3061 21.2219 16.1156 21.6099 16.0384C21.9978 15.9613 22.4 16.0009 22.7654 16.1522C23.1309 16.3036 23.4432 16.56 23.663 16.8889C23.8828 17.2178 24.0001 17.6044 24.0001 18C24.0001 18.5304 23.7894 19.0391 23.4143 19.4142C23.0392 19.7893 22.5305 20 22.0001 20Z" fill="white"/>
<path d="M39.72 14V12.336H43.048V24H41.208V14H39.72ZM52.9458 13.744L48.4978 24H46.6578L51.1538 13.936H45.2338V12.384H52.9458V13.744ZM54.4749 15.216C54.5389 14.224 54.9175 13.4507 55.6109 12.896C56.3149 12.3413 57.2109 12.064 58.2989 12.064C59.0455 12.064 59.6909 12.1973 60.2349 12.464C60.7789 12.7307 61.1895 13.0933 61.4669 13.552C61.7442 14.0107 61.8829 14.528 61.8829 15.104C61.8829 15.7653 61.7069 16.3307 61.3549 16.8C61.0029 17.2693 60.5815 17.584 60.0909 17.744V17.808C60.7202 18 61.2109 18.352 61.5629 18.864C61.9149 19.3653 62.0909 20.0107 62.0909 20.8C62.0909 21.4293 61.9469 21.9893 61.6589 22.48C61.3709 22.9707 60.9442 23.36 60.3789 23.648C59.8135 23.9253 59.1362 24.064 58.3469 24.064C57.1949 24.064 56.2455 23.7707 55.4989 23.184C54.7629 22.5867 54.3682 21.7333 54.3149 20.624H56.0749C56.1175 21.1893 56.3362 21.6533 56.7309 22.016C57.1255 22.368 57.6589 22.544 58.3309 22.544C58.9815 22.544 59.4829 22.368 59.8349 22.016C60.1869 21.6533 60.3629 21.1893 60.3629 20.624C60.3629 19.8773 60.1229 19.3493 59.6429 19.04C59.1735 18.72 58.4482 18.56 57.4669 18.56H57.0509V17.056H57.4829C58.3469 17.0453 59.0029 16.9013 59.4509 16.624C59.9095 16.3467 60.1389 15.9093 60.1389 15.312C60.1389 14.8 59.9735 14.3947 59.6429 14.096C59.3122 13.7867 58.8429 13.632 58.2349 13.632C57.6375 13.632 57.1735 13.7867 56.8429 14.096C56.5122 14.3947 56.3149 14.768 56.2509 15.216H54.4749Z" fill="white"/>
</svg>
