<svg width="30" height="30" viewBox="0 0 30 30" fill="none" xmlns="http://www.w3.org/2000/svg">
<path d="M26.6667 0C27.5507 0 28.3986 0.34086 29.0237 0.947596C29.6488 1.55433 30 2.37724 30 3.23529V25.8824C30 26.7404 29.6488 27.5633 29.0237 28.17C28.3986 28.7768 27.5507 29.1176 26.6667 29.1176H3.33333C2.44928 29.1176 1.60143 28.7768 0.976311 28.17C0.351189 27.5633 0 26.7404 0 25.8824V3.23529C0 2.37724 0.351189 1.55433 0.976311 0.947596C1.60143 0.34086 2.44928 0 3.33333 0H26.6667ZM25.8333 25.0735V16.5C25.8333 15.1014 25.2609 13.76 24.2419 12.7711C23.223 11.7821 21.841 11.2265 20.4 11.2265C18.9833 11.2265 17.3333 12.0676 16.5333 13.3294V11.5338H11.8833V25.0735H16.5333V17.0985C16.5333 15.8529 17.5667 14.8338 18.85 14.8338C19.4688 14.8338 20.0623 15.0724 20.4999 15.4971C20.9375 15.9219 21.1833 16.4979 21.1833 17.0985V25.0735H25.8333ZM6.46667 8.99412C7.20927 8.99412 7.92146 8.7078 8.44657 8.19814C8.97167 7.68848 9.26667 6.99724 9.26667 6.27647C9.26667 4.77206 8.01667 3.54265 6.46667 3.54265C5.71964 3.54265 5.00321 3.83067 4.47498 4.34337C3.94675 4.85606 3.65 5.55142 3.65 6.27647C3.65 7.78088 4.91667 8.99412 6.46667 8.99412ZM8.78333 25.0735V11.5338H4.16667V25.0735H8.78333Z" fill="#17B8C2"/>
</svg>
