<svg width="21" height="22" viewBox="0 0 21 22" fill="none" xmlns="http://www.w3.org/2000/svg">
<path d="M10.5 8.30737C10.0055 8.30756 9.52221 8.46 9.11116 8.74543C8.70011 9.03085 8.37978 9.43643 8.19068 9.91089C8.00158 10.3854 7.9522 10.9074 8.04878 11.411C8.14536 11.9146 8.38357 12.3772 8.73328 12.7402C9.08299 13.1032 9.52851 13.3504 10.0135 13.4505C10.4985 13.5506 11.0012 13.4991 11.458 13.3026C11.9148 13.106 12.3052 12.7732 12.5799 12.3463C12.8546 11.9193 13.0012 11.4173 13.0012 10.9038C13.0008 10.2152 12.737 9.55493 12.268 9.06808C11.7991 8.58123 11.1631 8.30763 10.5 8.30737ZM16.3458 6.31157C16.2185 5.97659 16.0263 5.67235 15.7811 5.41771C15.5359 5.16306 15.2429 4.96346 14.9203 4.83128C13.9359 4.42774 11.5922 4.51828 10.5 4.51828C9.40781 4.51828 7.06641 4.42433 6.07922 4.83128C5.75664 4.96346 5.46367 5.16306 5.21846 5.41771C4.97325 5.67235 4.78104 5.97659 4.65375 6.31157C4.26562 7.33381 4.35234 9.77014 4.35234 10.9034C4.35234 12.0366 4.26562 14.47 4.65562 15.4956C4.78291 15.8306 4.97512 16.1349 5.22033 16.3895C5.46554 16.6441 5.75852 16.8437 6.08109 16.9759C7.06547 17.3795 9.40922 17.2889 10.5019 17.2889C11.5945 17.2889 13.935 17.3829 14.9222 16.9759C15.2448 16.8437 15.5377 16.6441 15.783 16.3895C16.0282 16.1349 16.2204 15.8306 16.3477 15.4956C16.7391 14.4734 16.6491 12.0371 16.6491 10.9038C16.6491 9.77063 16.7391 7.3377 16.3477 6.31206L16.3458 6.31157ZM10.5 14.8954C9.73978 14.8954 8.99663 14.6613 8.36453 14.2227C7.73243 13.7841 7.23976 13.1607 6.94884 12.4314C6.65791 11.702 6.58179 10.8994 6.73011 10.1251C6.87842 9.35083 7.2445 8.6396 7.78206 8.08137C8.31962 7.52313 9.00451 7.14297 9.75012 6.98896C10.4957 6.83494 11.2686 6.91399 11.9709 7.2161C12.6733 7.51821 13.2736 8.02983 13.696 8.68624C14.1183 9.34265 14.3438 10.1144 14.3438 10.9038C14.3444 11.4282 14.2454 11.9475 14.0524 12.4321C13.8595 12.9167 13.5764 13.357 13.2193 13.7278C12.8623 14.0985 12.4383 14.3925 11.9717 14.5929C11.505 14.7933 11.0049 14.8961 10.5 14.8954ZM14.5022 7.6765C14.3247 7.6766 14.1512 7.62204 14.0036 7.51972C13.856 7.4174 13.7409 7.27193 13.673 7.10169C13.605 6.93145 13.5871 6.7441 13.6217 6.56334C13.6563 6.38258 13.7417 6.21652 13.8671 6.08617C13.9926 5.95582 14.1525 5.86704 14.3265 5.83105C14.5006 5.79506 14.681 5.81348 14.8449 5.88399C15.0089 5.95449 15.1491 6.07391 15.2477 6.22714C15.3463 6.38036 15.3989 6.56051 15.3989 6.74481C15.3994 6.86719 15.3766 6.98847 15.3319 7.10169C15.2871 7.21491 15.2213 7.31784 15.1382 7.40458C15.055 7.49133 14.9562 7.56017 14.8474 7.60717C14.7386 7.65416 14.6219 7.67839 14.5041 7.67845L14.5022 7.6765ZM18.75 0H2.25C1.65326 0 1.08097 0.24617 0.65901 0.684356C0.237053 1.12254 0 1.71685 0 2.33654L0 19.4712C0 20.0908 0.237053 20.6852 0.65901 21.1233C1.08097 21.5615 1.65326 21.8077 2.25 21.8077H18.75C19.3467 21.8077 19.919 21.5615 20.341 21.1233C20.7629 20.6852 21 20.0908 21 19.4712V2.33654C21 1.71685 20.7629 1.12254 20.341 0.684356C19.919 0.24617 19.3467 0 18.75 0ZM17.9475 14.1166C17.887 15.3642 17.6128 16.4697 16.7358 17.378C15.8588 18.2863 14.7952 18.5769 13.5952 18.6363C12.3572 18.7089 8.64563 18.7089 7.40766 18.6363C6.20625 18.5735 5.14547 18.2883 4.26703 17.378C3.38859 16.4677 3.1125 15.3618 3.05531 14.1166C2.98547 12.8305 2.98547 8.97571 3.05531 7.69111C3.11578 6.44349 3.38672 5.33802 4.26703 4.42969C5.14734 3.52136 6.21094 3.23416 7.40766 3.17477C8.64563 3.10224 12.3572 3.10224 13.5952 3.17477C14.7966 3.23757 15.8606 3.52282 16.7358 4.43309C17.6109 5.34337 17.8903 6.44933 17.9475 7.69695C18.0173 8.97815 18.0173 12.8295 17.9475 14.1166Z" fill="#17B8C2"/>
</svg>
