<svg width="21" height="22" viewBox="0 0 21 22" fill="none" xmlns="http://www.w3.org/2000/svg">
<path d="M18.75 0H2.25C1.00781 0 0 1.04657 0 2.33654V19.4712C0 20.7611 1.00781 21.8077 2.25 21.8077H18.75C19.9922 21.8077 21 20.7611 21 19.4712V2.33654C21 1.04657 19.9922 0 18.75 0ZM16.4578 7.73005C16.4672 7.86635 16.4672 8.00751 16.4672 8.14381C16.4672 12.3642 13.3734 17.2271 7.72031 17.2271C5.97656 17.2271 4.35938 16.7014 3 15.796C3.24844 15.8252 3.4875 15.8349 3.74063 15.8349C5.17969 15.8349 6.50156 15.3287 7.55625 14.4719C6.20625 14.4427 5.07188 13.5227 4.68281 12.2571C5.15625 12.3301 5.58281 12.3301 6.07031 12.1987C4.66406 11.9017 3.60938 10.6166 3.60938 9.06382V9.02488C4.01719 9.2634 4.49531 9.40944 4.99687 9.42891C4.5752 9.13763 4.22952 8.74249 3.99069 8.27872C3.75186 7.81496 3.6273 7.29701 3.62813 6.77109C3.62812 6.17722 3.77813 5.63203 4.04531 5.15986C5.55938 7.09724 7.83281 8.36286 10.3828 8.49916C9.94687 6.33299 11.5078 4.57572 13.3828 4.57572C14.2688 4.57572 15.0656 4.96028 15.6281 5.58335C16.3219 5.44705 16.9875 5.17933 17.5781 4.81424C17.3484 5.55415 16.8656 6.17722 16.2281 6.57151C16.8469 6.50337 17.4469 6.32326 18 6.075C17.5828 6.71268 17.0578 7.27734 16.4578 7.73005Z" fill="#17B8C2"/>
</svg>
