<svg width="64" height="64" viewBox="0 0 64 64" fill="none" xmlns="http://www.w3.org/2000/svg">
<path d="M48 13.3333H50.6667V16C50.6667 16.7072 50.9476 17.3855 51.4477 17.8856C51.9478 18.3857 52.6261 18.6666 53.3333 18.6666C54.0406 18.6666 54.7189 18.3857 55.219 17.8856C55.7191 17.3855 56 16.7072 56 16V13.3333H58.6667C59.3739 13.3333 60.0522 13.0524 60.5523 12.5523C61.0524 12.0522 61.3333 11.3739 61.3333 10.6666C61.3333 9.9594 61.0524 9.28112 60.5523 8.78103C60.0522 8.28093 59.3739 7.99998 58.6667 7.99998H56V5.33331C56 4.62607 55.7191 3.94779 55.219 3.44769C54.7189 2.9476 54.0406 2.66665 53.3333 2.66665C52.6261 2.66665 51.9478 2.9476 51.4477 3.44769C50.9476 3.94779 50.6667 4.62607 50.6667 5.33331V7.99998H48C47.2928 7.99998 46.6145 8.28093 46.1144 8.78103C45.6143 9.28112 45.3333 9.9594 45.3333 10.6666C45.3333 11.3739 45.6143 12.0522 46.1144 12.5523C46.6145 13.0524 47.2928 13.3333 48 13.3333ZM29.3333 24V40C29.3333 42.1217 30.1762 44.1565 31.6765 45.6568C33.1768 47.1571 35.2116 48 37.3333 48H40C42.1217 48 44.1566 47.1571 45.6569 45.6568C47.1572 44.1565 48 42.1217 48 40V24C48 21.8782 47.1572 19.8434 45.6569 18.3431C44.1566 16.8428 42.1217 16 40 16H37.3333C35.2116 16 33.1768 16.8428 31.6765 18.3431C30.1762 19.8434 29.3333 21.8782 29.3333 24ZM42.6667 24V40C42.6667 40.7072 42.3857 41.3855 41.8856 41.8856C41.3855 42.3857 40.7072 42.6666 40 42.6666H37.3333C36.6261 42.6666 35.9478 42.3857 35.4477 41.8856C34.9476 41.3855 34.6667 40.7072 34.6667 40V24C34.6667 23.2927 34.9476 22.6145 35.4477 22.1144C35.9478 21.6143 36.6261 21.3333 37.3333 21.3333H40C40.7072 21.3333 41.3855 21.6143 41.8856 22.1144C42.3857 22.6145 42.6667 23.2927 42.6667 24ZM57.6 24C57.2568 24.07 56.9307 24.2069 56.6404 24.4029C56.3501 24.5989 56.1013 24.8502 55.9081 25.1424C55.715 25.4346 55.5813 25.762 55.5147 26.1059C55.4481 26.4498 55.4499 26.8035 55.52 27.1466C56.5612 32.2032 55.9441 37.4607 53.7603 42.1387C51.5765 46.8167 47.9425 50.6659 43.3977 53.1148C38.8529 55.5638 33.6395 56.4819 28.5315 55.733C23.4235 54.984 18.6931 52.6079 15.0426 48.9574C11.392 45.3069 9.01596 40.5765 8.26702 35.4685C7.51808 30.3605 8.43622 25.1471 10.8851 20.6023C13.3341 16.0575 17.1832 12.4234 21.8613 10.2397C26.5393 8.0559 31.7968 7.43881 36.8533 8.47998C37.5606 8.62143 38.295 8.47613 38.8952 8.07605C39.4953 7.67598 39.9119 7.05389 40.0533 6.34665C40.1948 5.6394 40.0495 4.90493 39.6494 4.30482C39.2493 3.7047 38.6272 3.28809 37.92 3.14665C35.9685 2.78305 33.9846 2.62219 32 2.66665C26.1984 2.66665 20.5271 4.38701 15.7033 7.6102C10.8794 10.8334 7.1197 15.4146 4.89953 20.7746C2.67936 26.1346 2.09846 32.0325 3.2303 37.7226C4.36213 43.4127 7.15586 48.6394 11.2582 52.7418C15.3605 56.8441 20.5872 59.6378 26.2774 60.7697C31.9675 61.9015 37.8654 61.3206 43.2254 59.1004C48.5854 56.8803 53.1666 53.1205 56.3898 48.2967C59.613 43.4729 61.3333 37.8016 61.3333 32C61.339 30.0295 61.1424 28.0636 60.7467 26.1333C60.6828 25.7853 60.5503 25.4535 60.3569 25.1572C60.1635 24.8609 59.9131 24.606 59.6202 24.4075C59.3274 24.2089 58.9979 24.0706 58.6511 24.0007C58.3042 23.9307 57.9469 23.9305 57.6 24ZM18.6667 18.6666V45.3333C18.6667 46.0406 18.9476 46.7188 19.4477 47.2189C19.9478 47.719 20.6261 48 21.3333 48C22.0406 48 22.7189 47.719 23.219 47.2189C23.719 46.7188 24 46.0406 24 45.3333V18.6666C24 17.9594 23.719 17.2811 23.219 16.781C22.7189 16.2809 22.0406 16 21.3333 16C20.6261 16 19.9478 16.2809 19.4477 16.781C18.9476 17.2811 18.6667 17.9594 18.6667 18.6666Z" fill="#14788E"/>
</svg>
