<svg width="64" height="64" viewBox="0 0 64 64" fill="none" xmlns="http://www.w3.org/2000/svg">
<path d="M29.3333 24.0001H40C40.7072 24.0001 41.3855 23.7191 41.8856 23.219C42.3857 22.7189 42.6666 22.0407 42.6666 21.3334C42.6666 20.6262 42.3857 19.9479 41.8856 19.4478C41.3855 18.9477 40.7072 18.6667 40 18.6667H34.6666V16.0001C34.6666 15.2928 34.3857 14.6146 33.8856 14.1145C33.3855 13.6144 32.7072 13.3334 32 13.3334C31.2927 13.3334 30.6145 13.6144 30.1144 14.1145C29.6143 14.6146 29.3333 15.2928 29.3333 16.0001V18.6667C27.2116 18.6667 25.1767 19.5096 23.6765 21.0099C22.1762 22.5102 21.3333 24.545 21.3333 26.6667C21.3333 28.7885 22.1762 30.8233 23.6765 32.3236C25.1767 33.8239 27.2116 34.6667 29.3333 34.6667H34.6666C35.3739 34.6667 36.0522 34.9477 36.5523 35.4478C37.0524 35.9479 37.3333 36.6262 37.3333 37.3334C37.3333 38.0407 37.0524 38.7189 36.5523 39.219C36.0522 39.7191 35.3739 40.0001 34.6666 40.0001H24C23.2927 40.0001 22.6145 40.281 22.1144 40.7811C21.6143 41.2812 21.3333 41.9595 21.3333 42.6667C21.3333 43.374 21.6143 44.0523 22.1144 44.5524C22.6145 45.0525 23.2927 45.3334 24 45.3334H29.3333V48.0001C29.3333 48.7073 29.6143 49.3856 30.1144 49.8857C30.6145 50.3858 31.2927 50.6667 32 50.6667C32.7072 50.6667 33.3855 50.3858 33.8856 49.8857C34.3857 49.3856 34.6666 48.7073 34.6666 48.0001V45.3334C36.7884 45.3334 38.8232 44.4906 40.3235 42.9903C41.8238 41.49 42.6666 39.4551 42.6666 37.3334C42.6666 35.2117 41.8238 33.1768 40.3235 31.6766C38.8232 30.1763 36.7884 29.3334 34.6666 29.3334H29.3333C28.6261 29.3334 27.9478 29.0525 27.4477 28.5524C26.9476 28.0523 26.6666 27.374 26.6666 26.6667C26.6666 25.9595 26.9476 25.2812 27.4477 24.7811C27.9478 24.281 28.6261 24.0001 29.3333 24.0001ZM32 2.66675C26.1984 2.66675 20.5271 4.38712 15.7032 7.61031C10.8794 10.8335 7.11968 15.4147 4.89951 20.7747C2.67934 26.1347 2.09844 32.0326 3.23027 37.7227C4.3621 43.4128 7.15583 48.6395 11.2582 52.7419C15.3605 56.8442 20.5872 59.6379 26.2773 60.7698C31.9674 61.9016 37.8654 61.3207 43.2254 59.1005C48.5853 56.8804 53.1666 53.1206 56.3898 48.2968C59.6129 43.473 61.3333 37.8017 61.3333 32.0001C61.3333 24.2204 58.2428 16.7593 52.7418 11.2583C47.2407 5.75722 39.7797 2.66675 32 2.66675ZM32 56.0001C27.2532 56.0001 22.6131 54.5925 18.6663 51.9553C14.7195 49.3182 11.6434 45.5699 9.82686 41.1845C8.01036 36.7991 7.53508 31.9735 8.46113 27.3179C9.38717 22.6624 11.6729 18.386 15.0294 15.0295C18.3859 11.6731 22.6623 9.38728 27.3178 8.46123C31.9734 7.53519 36.799 8.01047 41.1844 9.82697C45.5698 11.6435 49.3181 14.7196 51.9552 18.6664C54.5924 22.6132 56 27.2533 56 32.0001C56 38.3653 53.4714 44.4698 48.9705 48.9706C44.4697 53.4715 38.3652 56.0001 32 56.0001Z" fill="#14788E"/>
</svg>
