<svg width="64" height="64" viewBox="0 0 64 64" fill="none" xmlns="http://www.w3.org/2000/svg">
<path d="M53.8133 27.1733C51.8952 26.8262 49.9492 26.6566 48 26.6666C46.88 26.6666 45.7867 26.6666 44.6933 26.8799C43.3322 25.0636 41.5948 23.5627 39.6 22.4799C41.3134 20.6086 42.2647 18.1639 42.2667 15.6266C42.2667 12.8966 41.1822 10.2785 39.2518 8.3481C37.3214 6.41772 34.7033 5.33325 31.9733 5.33325C29.2434 5.33325 26.6252 6.41772 24.6948 8.3481C22.7645 10.2785 21.68 12.8966 21.68 15.6266C21.6819 18.1639 22.6332 20.6086 24.3467 22.4799C22.3637 23.5683 20.6291 25.0577 19.2533 26.8533C18.2133 26.6666 17.12 26.6666 16 26.6666C14.0491 26.6742 12.1031 26.8616 10.1867 27.2266C9.56543 27.3402 9.00469 27.6705 8.60425 28.1589C8.20382 28.6472 7.98969 29.2618 7.99999 29.8933V51.8932C7.99935 52.285 8.08504 52.6721 8.25097 53.027C8.41689 53.3819 8.65897 53.6959 8.95999 53.9466C9.25911 54.1988 9.61007 54.3821 9.98797 54.4835C10.3659 54.5849 10.7615 54.6019 11.1467 54.5333C12.7424 54.1857 14.3674 53.9893 16 53.9466C21.1656 53.9409 26.2191 55.4524 30.5333 58.2933L30.88 58.4266C31.2337 58.5801 31.6144 58.6617 32 58.6666C32.2545 58.6634 32.5068 58.6184 32.7467 58.5333H32.9333L33.28 58.3999C37.6353 55.4861 42.7599 53.9357 48 53.9466C49.6292 53.9542 51.2542 54.1149 52.8533 54.4266C53.2385 54.4952 53.6341 54.4782 54.012 54.3768C54.3899 54.2754 54.7409 54.0921 55.04 53.8399C55.341 53.5892 55.5831 53.2752 55.749 52.9203C55.9149 52.5654 56.0006 52.1783 56 51.7866V29.7866C55.9977 29.1643 55.7779 28.5624 55.3785 28.0851C54.9792 27.6078 54.4255 27.2853 53.8133 27.1733ZM32 10.6666C33.2492 10.7584 34.4174 11.3194 35.27 12.2369C36.1226 13.1545 36.5965 14.3607 36.5965 15.6133C36.5965 16.8658 36.1226 18.072 35.27 18.9896C34.4174 19.9071 33.2492 20.4681 32 20.5599C30.7508 20.4681 29.5826 19.9071 28.73 18.9896C27.8773 18.072 27.4034 16.8658 27.4034 15.6133C27.4034 14.3607 27.8773 13.1545 28.73 12.2369C29.5826 11.3194 30.7508 10.7584 32 10.6666ZM29.3333 51.5466C25.1538 49.6147 20.6044 48.6138 16 48.6133C15.12 48.6133 14.24 48.6133 13.3333 48.7466V31.9999C15.5695 31.7498 17.8288 31.7946 20.0533 32.1333H20.3467C23.5242 32.7172 26.5693 33.8738 29.3333 35.5466V51.5466ZM32 30.9333C30.8142 30.2492 29.5849 29.6435 28.32 29.1199H28.16C27.28 28.7733 26.4 28.4266 25.4933 28.1599C27.3448 26.6863 29.6338 25.8701 32 25.8399C34.3599 25.8549 36.6482 26.652 38.5067 28.1066C36.2429 28.8133 34.0615 29.761 32 30.9333ZM50.6667 48.7466C45.1911 48.1964 39.6678 49.117 34.6667 51.4133V35.4133C37.4357 33.7834 40.4826 32.6803 43.6533 32.1599H44.1867C46.3306 31.8261 48.5088 31.7723 50.6667 31.9999V48.7466Z" fill="#14788E"/>
</svg>
