<svg width="83" height="63" viewBox="0 0 83 63" fill="none" xmlns="http://www.w3.org/2000/svg">
<path d="M80.2736 22.4858L76.3986 20.3546L41.5236 0.97957H41.0974C40.8598 0.879125 40.6133 0.801282 40.3611 0.74707H39.6249H38.9274C38.6626 0.801317 38.4033 0.879127 38.1524 0.97957H37.7261L2.85114 20.3546C2.25479 20.6925 1.75876 21.1826 1.41365 21.7749C1.06855 22.3672 0.886719 23.0404 0.886719 23.7258C0.886719 24.4113 1.06855 25.0845 1.41365 25.6767C1.75876 26.269 2.25479 26.7591 2.85114 27.0971L12.4999 32.4446V50.8121C12.4999 53.8952 13.7247 56.8521 15.9048 59.0322C18.0849 61.2123 21.0418 62.4371 24.1249 62.4371H55.1249C58.208 62.4371 61.1649 61.2123 63.345 59.0322C65.5251 56.8521 66.7499 53.8952 66.7499 50.8121V32.4446L74.4999 28.1046V39.1871C74.4999 40.2148 74.9081 41.2004 75.6348 41.9271C76.3616 42.6538 77.3472 43.0621 78.3749 43.0621C79.4026 43.0621 80.3882 42.6538 81.1149 41.9271C81.8416 41.2004 82.2499 40.2148 82.2499 39.1871V25.8571C82.2487 25.1704 82.0651 24.4964 81.7179 23.9041C81.3706 23.3117 80.8722 22.8223 80.2736 22.4858ZM58.9999 50.8121C58.9999 51.8398 58.5916 52.8254 57.8649 53.5521C57.1382 54.2788 56.1526 54.6871 55.1249 54.6871H24.1249C23.0972 54.6871 22.1116 54.2788 21.3849 53.5521C20.6582 52.8254 20.2499 51.8398 20.2499 50.8121V36.7458L37.7261 46.4333L38.3074 46.6658H38.6561C38.9778 46.7063 39.3032 46.7063 39.6249 46.6658C39.9465 46.7063 40.272 46.7063 40.5936 46.6658H40.9424C41.1481 46.6225 41.3448 46.5438 41.5236 46.4333L58.9999 36.7458V50.8121ZM39.6249 38.6446L12.7324 23.6871L39.6249 8.72957L66.5174 23.6871L39.6249 38.6446Z" fill="#324546"/>
</svg>
