<svg width="71" height="79" viewBox="0 0 71 79" fill="none" xmlns="http://www.w3.org/2000/svg">
<path d="M67.1975 32.4862C64.4103 31.9819 61.5825 31.7354 58.75 31.75C57.1225 31.75 55.5338 31.75 53.945 32.06C51.9671 29.4207 49.4425 27.2397 46.5438 25.6663C49.0336 22.947 50.4159 19.3945 50.4188 15.7075C50.4188 11.7405 48.8429 7.93603 46.0378 5.13095C43.2328 2.32587 39.4283 0.75 35.4613 0.75C31.4943 0.75 27.6898 2.32587 24.8847 5.13095C22.0797 7.93603 20.5038 11.7405 20.5038 15.7075C20.5066 19.3945 21.8889 22.947 24.3788 25.6663C21.4973 27.2479 18.9767 29.4121 16.9775 32.0212C15.4663 31.75 13.8775 31.75 12.25 31.75C9.41517 31.761 6.58736 32.0334 3.80253 32.5637C2.89982 32.7288 2.08498 33.2089 1.5031 33.9185C0.921219 34.6281 0.610061 35.5212 0.625028 36.4388V68.4075C0.624103 68.9768 0.748621 69.5393 0.989728 70.055C1.23083 70.5707 1.58261 71.0269 2.02003 71.3913C2.45469 71.7578 2.96468 72.0241 3.51382 72.1714C4.06295 72.3188 4.63778 72.3435 5.19753 72.2438C7.51637 71.7387 9.87764 71.4533 12.25 71.3913C19.7563 71.383 27.0997 73.5793 33.3688 77.7075L33.8725 77.9013C34.3865 78.1243 34.9398 78.2429 35.5 78.25C35.8699 78.2454 36.2364 78.1799 36.585 78.0563H36.8563L37.36 77.8625C43.6888 73.6283 51.1355 71.3754 58.75 71.3913C61.1175 71.4023 63.4787 71.6358 65.8025 72.0888C66.3623 72.1885 66.9371 72.1638 67.4862 72.0164C68.0354 71.8691 68.5454 71.6028 68.98 71.2363C69.4174 70.8719 69.7692 70.4157 70.0103 69.9C70.2514 69.3843 70.376 68.8218 70.375 68.2525V36.2837C70.3717 35.3795 70.0522 34.5048 69.4719 33.8113C68.8916 33.1178 68.0871 32.649 67.1975 32.4862ZM35.5 8.5C37.3153 8.63337 39.0128 9.44858 40.2518 10.7819C41.4908 12.1153 42.1794 13.868 42.1794 15.6881C42.1794 17.5083 41.4908 19.261 40.2518 20.5943C39.0128 21.9277 37.3153 22.7429 35.5 22.8762C33.6848 22.7429 31.9872 21.9277 30.7483 20.5943C29.5093 19.261 28.8207 17.5083 28.8207 15.6881C28.8207 13.868 29.5093 12.1153 30.7483 10.7819C31.9872 9.44858 33.6848 8.63337 35.5 8.5ZM31.625 67.9037C25.5516 65.0964 18.9409 63.642 12.25 63.6412C10.9713 63.6412 9.69253 63.6413 8.37503 63.835V39.5C11.6245 39.1365 14.9076 39.2016 18.14 39.6938H18.5663C23.1837 40.5424 27.6085 42.223 31.625 44.6538V67.9037ZM35.5 37.95C33.7769 36.956 31.9906 36.0758 30.1525 35.315H29.92C28.6413 34.8112 27.3625 34.3075 26.045 33.92C28.7355 31.7786 32.0617 30.5926 35.5 30.5487C38.9293 30.5705 42.2545 31.7289 44.955 33.8425C41.6655 34.8695 38.4957 36.2465 35.5 37.95ZM62.625 63.835C54.6683 63.0355 46.6424 64.3732 39.375 67.71V44.46C43.3988 42.0916 47.8264 40.4887 52.4338 39.7325H53.2088C56.3242 39.2474 59.4895 39.1692 62.625 39.5V63.835Z" fill="#324546"/>
</svg>
