<svg width="79" height="79" viewBox="0 0 79 79" fill="none" xmlns="http://www.w3.org/2000/svg">
<path d="M75.0338 0.982605C72.2562 0.504171 69.4435 0.257904 66.625 0.246355C57.0087 0.238471 47.5929 2.99595 39.5 8.19011C31.3863 3.06415 21.972 0.374349 12.375 0.440105C9.55653 0.451653 6.74389 0.697921 3.96627 1.17635C3.05645 1.33321 2.23252 1.80976 1.64287 2.52018C1.05322 3.2306 0.736601 4.12821 0.750023 5.05135V51.5514C0.741724 52.1207 0.859012 52.6849 1.09354 53.2038C1.32807 53.7227 1.67408 54.1835 2.10694 54.5535C2.53981 54.9235 3.04889 55.1935 3.59798 55.3444C4.14706 55.4952 4.72264 55.5232 5.28377 55.4264C10.8367 54.4649 16.5259 54.6244 22.0163 55.8955C27.5066 57.1666 32.6871 59.5236 37.2525 62.8276L37.7175 63.0989H38.1438C38.5735 63.2779 39.0345 63.3701 39.5 63.3701C39.9656 63.3701 40.4265 63.2779 40.8563 63.0989H41.2825L41.7475 62.8276C46.2811 59.4497 51.4467 57.0164 56.9381 55.6718C62.4295 54.3273 68.1349 54.0989 73.7163 55.0001C74.2774 55.097 74.853 55.069 75.4021 54.9181C75.9511 54.7672 76.4602 54.4972 76.8931 54.1272C77.326 53.7573 77.672 53.2965 77.9065 52.7776C78.141 52.2587 78.2583 51.6945 78.25 51.1251V4.6251C78.2097 3.7422 77.8688 2.89961 77.2838 2.23709C76.6988 1.57457 75.9049 1.13193 75.0338 0.982605ZM35.625 52.4814C28.4558 48.7098 20.4758 46.7414 12.375 46.7464C11.0963 46.7464 9.81752 46.7464 8.50002 46.7464V7.99635C9.79062 7.92197 11.0844 7.92197 12.375 7.99635C20.6419 7.98722 28.7284 10.4132 35.625 14.9714V52.4814ZM70.5 46.9014C69.1825 46.9014 67.9038 46.9014 66.625 46.9014C58.5243 46.8964 50.5442 48.8648 43.375 52.6364V14.9714C50.2717 10.4132 58.3582 7.98722 66.625 7.99635C67.9156 7.92197 69.2094 7.92197 70.5 7.99635V46.9014ZM75.0338 62.9826C72.2562 62.5042 69.4435 62.2579 66.625 62.2464C57.0087 62.2385 47.5929 64.996 39.5 70.1901C31.4071 64.996 21.9914 62.2385 12.375 62.2464C9.55653 62.2579 6.74389 62.5042 3.96627 62.9826C3.46185 63.0627 2.97824 63.2416 2.54323 63.5092C2.10822 63.7768 1.7304 64.1278 1.43151 64.5419C1.13261 64.9561 0.918529 65.4252 0.801575 65.9224C0.684621 66.4195 0.667101 66.9349 0.750023 67.4389C0.946945 68.4451 1.53467 69.3323 2.38446 69.9061C3.23425 70.4799 4.27681 70.6935 5.28377 70.5001C10.8367 69.5387 16.5259 69.6982 22.0163 70.9693C27.5066 72.2404 32.6871 74.5974 37.2525 77.9014C37.9088 78.3686 38.6944 78.6197 39.5 78.6197C40.3056 78.6197 41.0912 78.3686 41.7475 77.9014C46.313 74.5974 51.4934 72.2404 56.9838 70.9693C62.4741 69.6982 68.1633 69.5387 73.7163 70.5001C74.7232 70.6935 75.7658 70.4799 76.6156 69.9061C77.4654 69.3323 78.0531 68.4451 78.25 67.4389C78.3329 66.9349 78.3154 66.4195 78.1985 65.9224C78.0815 65.4252 77.8674 64.9561 77.5685 64.5419C77.2696 64.1278 76.8918 63.7768 76.4568 63.5092C76.0218 63.2416 75.5382 63.0627 75.0338 62.9826Z" fill="#324546"/>
</svg>
